<svg xmlns="http://www.w3.org/2000/svg" width="28" height="28" viewBox="0 0 28 28" fill="none">
  <path d="M21.3045 7.48597C23.6762 10.9977 24.8474 14.9588 24.4096 19.519C24.4077 19.5383 24.3978 19.556 24.382 19.5677C22.586 20.8958 20.8459 21.7018 19.1302 22.2364C19.1168 22.2405 19.1025 22.2402 19.0893 22.2357C19.0761 22.2312 19.0646 22.2227 19.0564 22.2113C18.6601 21.6558 18.2999 21.0703 17.9844 20.4554C17.9663 20.4192 17.9828 20.3756 18.0201 20.3613C18.5921 20.1442 19.136 19.8841 19.6591 19.5761C19.7003 19.5518 19.703 19.4923 19.6649 19.4638C19.5539 19.3808 19.4439 19.2935 19.3386 19.2063C19.3189 19.1902 19.2924 19.187 19.2701 19.1978C15.8736 20.7774 12.153 20.7774 8.71631 19.1978C8.694 19.1878 8.66749 19.1912 8.64833 19.2071C8.54333 19.2943 8.43308 19.3808 8.32309 19.4638C8.28503 19.4923 8.28818 19.5518 8.32965 19.5761C8.85281 19.8783 9.39671 20.1442 9.96791 20.3623C10.0049 20.3766 10.0225 20.4192 10.0041 20.4554C9.69544 21.0711 9.33529 21.6566 8.93156 22.212C8.91398 22.2345 8.8851 22.2448 8.8578 22.2364C7.15024 21.7018 5.41013 20.8958 3.61411 19.5677C3.59915 19.556 3.58838 19.5375 3.58681 19.5182C3.22088 15.5737 3.96665 11.5798 6.68903 7.48518C6.69559 7.47434 6.70557 7.46588 6.71712 7.46086C8.05665 6.84173 9.49174 6.38624 10.9917 6.12611C11.019 6.12188 11.0463 6.13457 11.0604 6.15889C11.2458 6.48934 11.4576 6.91311 11.6009 7.25942C13.182 7.01621 14.7877 7.01621 16.4018 7.25942C16.5451 6.92051 16.7496 6.48934 16.9341 6.15889C16.9407 6.14683 16.9509 6.13716 16.9632 6.13128C16.9756 6.12539 16.9895 6.12358 17.0029 6.12611C18.5036 6.38704 19.9387 6.84253 21.2772 7.46086C21.289 7.46588 21.2987 7.47434 21.3045 7.48597ZM12.4047 14.9858C12.4212 13.8197 11.577 12.8548 10.5173 12.8548C9.46627 12.8548 8.63021 13.8113 8.63021 14.9858C8.63021 16.1601 9.48281 17.1165 10.5173 17.1165C11.5686 17.1165 12.4047 16.1601 12.4047 14.9858ZM19.3825 14.9858C19.399 13.8197 18.5548 12.8548 17.4953 12.8548C16.444 12.8548 15.608 13.8113 15.608 14.9858C15.608 16.1601 16.4606 17.1165 17.4953 17.1165C18.5548 17.1165 19.3825 16.1601 19.3825 14.9858Z" fill="currentColor"/>
</svg>
