<svg xmlns="http://www.w3.org/2000/svg" width="28" height="28" viewBox="0 0 28 28" fill="none">
  <path d="M4.76434 12.8713C4.76434 12.8713 13.8853 9.02971 17.0486 7.677C18.2612 7.13596 22.3735 5.40448 22.3735 5.40448C22.3735 5.40448 24.2715 4.64702 24.1133 6.48664C24.0606 7.24417 23.6388 9.89538 23.2171 12.7631C22.5844 16.8212 21.899 21.2579 21.899 21.2579C21.899 21.2579 21.7935 22.5024 20.8973 22.7188C20.001 22.9352 18.5248 21.9614 18.2612 21.7449C18.0502 21.5826 14.307 19.1477 12.9363 17.9574C12.5672 17.6328 12.1454 16.9835 12.9889 16.226C14.887 14.4404 17.154 12.222 18.5248 10.8153C19.1575 10.1659 19.7901 8.65095 17.154 10.4906C13.4108 13.1418 9.72022 15.6308 9.72022 15.6308C9.72022 15.6308 8.87664 16.1718 7.295 15.6849C5.71328 15.198 3.86801 14.5486 3.86801 14.5486C3.86801 14.5486 2.60276 13.737 4.76434 12.8713Z" fill="currentColor"/>
</svg>
